<mxfile host="Electron" agent="Mozilla/5.0 (X11; Linux x86_64) AppleWebKit/537.36 (KHTML, like Gecko) draw.io/28.0.6 Chrome/138.0.7204.100 Electron/37.2.3 Safari/537.36" version="28.0.6">
  <diagram name="Page-1" id="wr5n62SfcBb_zeIZeXBu">
    <mxGraphModel dx="3699" dy="928" grid="1" gridSize="10" guides="1" tooltips="1" connect="1" arrows="1" fold="1" page="1" pageScale="1" pageWidth="850" pageHeight="1100" math="0" shadow="0">
      <root>
        <mxCell id="0" />
        <mxCell id="1" parent="0" />
        <mxCell id="UuMmMrrrckiDj9_PNnIG-8" value="" style="rounded=1;whiteSpace=wrap;html=1;glass=0;fillColor=none;sketch=1;curveFitting=1;jiggle=2;" parent="1" vertex="1">
          <mxGeometry x="-70" y="402.5" width="410" height="260" as="geometry" />
        </mxCell>
        <mxCell id="UuMmMrrrckiDj9_PNnIG-6" value="" style="rounded=1;whiteSpace=wrap;html=1;glass=0;fillColor=none;sketch=1;curveFitting=1;jiggle=2;" parent="1" vertex="1">
          <mxGeometry x="630" y="400" width="425" height="260" as="geometry" />
        </mxCell>
        <mxCell id="UuMmMrrrckiDj9_PNnIG-2" value="user" style="rounded=1;whiteSpace=wrap;html=1;" parent="1" vertex="1">
          <mxGeometry x="-565" y="480" width="120" height="60" as="geometry" />
        </mxCell>
        <mxCell id="UuMmMrrrckiDj9_PNnIG-3" value="BE" style="rounded=1;whiteSpace=wrap;html=1;" parent="1" vertex="1">
          <mxGeometry x="760" y="480" width="120" height="60" as="geometry" />
        </mxCell>
        <mxCell id="UuMmMrrrckiDj9_PNnIG-4" value="FE" style="rounded=1;whiteSpace=wrap;html=1;" parent="1" vertex="1">
          <mxGeometry x="75" y="502.5" width="120" height="60" as="geometry" />
        </mxCell>
        <mxCell id="UuMmMrrrckiDj9_PNnIG-7" value="AWS EC2" style="text;html=1;align=center;verticalAlign=middle;whiteSpace=wrap;rounded=0;fontSize=15;" parent="1" vertex="1">
          <mxGeometry x="650" y="410" width="80" height="30" as="geometry" />
        </mxCell>
        <mxCell id="UuMmMrrrckiDj9_PNnIG-9" value="&lt;span style=&quot;background-color: transparent; color: light-dark(rgb(0, 0, 0), rgb(255, 255, 255));&quot;&gt;Vercel&lt;/span&gt;" style="text;html=1;align=center;verticalAlign=middle;whiteSpace=wrap;rounded=0;fontSize=15;" parent="1" vertex="1">
          <mxGeometry x="-70" y="410" width="80" height="30" as="geometry" />
        </mxCell>
        <mxCell id="UuMmMrrrckiDj9_PNnIG-11" value="" style="endArrow=classic;html=1;rounded=0;" parent="1" edge="1">
          <mxGeometry width="50" height="50" relative="1" as="geometry">
            <mxPoint x="-405" y="509" as="sourcePoint" />
            <mxPoint x="-125" y="509" as="targetPoint" />
          </mxGeometry>
        </mxCell>
        <mxCell id="tXqJvwdXQlFcjGPXLm3d-10" value="&lt;span style=&quot;font-size: 12px; background-color: rgb(27, 29, 30);&quot;&gt;get weather by location and date&lt;/span&gt;" style="edgeLabel;html=1;align=center;verticalAlign=middle;resizable=0;points=[];" parent="UuMmMrrrckiDj9_PNnIG-11" vertex="1" connectable="0">
          <mxGeometry x="-0.1762" y="-2" relative="1" as="geometry">
            <mxPoint x="15" y="-16" as="offset" />
          </mxGeometry>
        </mxCell>
        <mxCell id="UuMmMrrrckiDj9_PNnIG-13" value="&lt;font style=&quot;font-size: 22px;&quot;&gt;Requirements&lt;br&gt;&lt;br&gt;3rd party service&lt;br&gt;- get weather from service&lt;/font&gt;&lt;div&gt;&lt;div&gt;&lt;span style=&quot;font-size: 22px;&quot;&gt;&lt;br&gt;&lt;/span&gt;&lt;/div&gt;&lt;div&gt;&lt;span style=&quot;font-size: 22px;&quot;&gt;cache&lt;br&gt;&lt;/span&gt;&lt;div&gt;&lt;span style=&quot;font-size: 22px;&quot;&gt;- get weather from cache&lt;br&gt;&lt;/span&gt;&lt;div&gt;&lt;div&gt;&lt;div&gt;&lt;font style=&quot;font-size: 22px;&quot;&gt;- save weather in cache&lt;/font&gt;&lt;/div&gt;&lt;div&gt;&lt;font style=&quot;font-size: 22px;&quot;&gt;&lt;br&gt;&lt;/font&gt;&lt;/div&gt;&lt;div&gt;&lt;font style=&quot;font-size: 22px;&quot;&gt;user locations in db&lt;/font&gt;&lt;/div&gt;&lt;div&gt;&lt;font style=&quot;font-size: 22px;&quot;&gt;- get user-locations&lt;/font&gt;&lt;/div&gt;&lt;div&gt;&lt;font style=&quot;font-size: 22px;&quot;&gt;- save date&amp;amp;location info into user-locations&lt;/font&gt;&lt;/div&gt;&lt;/div&gt;&lt;/div&gt;&lt;/div&gt;&lt;/div&gt;&lt;/div&gt;" style="text;html=1;align=left;verticalAlign=middle;resizable=0;points=[];autosize=1;strokeColor=#3A5431;fillColor=#6d8764;fontColor=#ffffff;" parent="1" vertex="1">
          <mxGeometry x="-860" y="15" width="450" height="330" as="geometry" />
        </mxCell>
        <mxCell id="UuMmMrrrckiDj9_PNnIG-14" value="Visual Crossing&lt;br&gt;(weather 3rd party service)" style="rounded=1;whiteSpace=wrap;html=1;sketch=1;curveFitting=1;jiggle=2;strokeColor=default;" parent="1" vertex="1">
          <mxGeometry x="1120" y="160" width="200" height="100" as="geometry" />
        </mxCell>
        <mxCell id="UuMmMrrrckiDj9_PNnIG-15" value="" style="endArrow=classic;html=1;rounded=0;" parent="1" edge="1">
          <mxGeometry width="50" height="50" relative="1" as="geometry">
            <mxPoint x="940" y="370" as="sourcePoint" />
            <mxPoint x="1100" y="250" as="targetPoint" />
          </mxGeometry>
        </mxCell>
        <mxCell id="tXqJvwdXQlFcjGPXLm3d-6" value="get weather" style="edgeLabel;html=1;align=center;verticalAlign=middle;resizable=0;points=[];labelBorderColor=none;fontSize=13;horizontal=1;fontStyle=0;textShadow=0;" parent="UuMmMrrrckiDj9_PNnIG-15" vertex="1" connectable="0">
          <mxGeometry x="-0.0084" y="1" relative="1" as="geometry">
            <mxPoint x="-29" y="-20" as="offset" />
          </mxGeometry>
        </mxCell>
        <mxCell id="UuMmMrrrckiDj9_PNnIG-16" value="" style="endArrow=classic;html=1;rounded=0;" parent="1" edge="1">
          <mxGeometry width="50" height="50" relative="1" as="geometry">
            <mxPoint x="390" y="501" as="sourcePoint" />
            <mxPoint x="580" y="501" as="targetPoint" />
          </mxGeometry>
        </mxCell>
        <mxCell id="UuMmMrrrckiDj9_PNnIG-18" value="Redis&lt;div&gt;(caching)&lt;/div&gt;" style="shape=cylinder3;whiteSpace=wrap;html=1;boundedLbl=1;backgroundOutline=1;size=15;" parent="1" vertex="1">
          <mxGeometry x="960" y="562.5" width="60" height="80" as="geometry" />
        </mxCell>
        <mxCell id="tXqJvwdXQlFcjGPXLm3d-1" value="" style="endArrow=classic;html=1;rounded=0;exitX=1;exitY=1;exitDx=0;exitDy=0;" parent="1" edge="1">
          <mxGeometry width="50" height="50" relative="1" as="geometry">
            <mxPoint x="887" y="524.9999999999998" as="sourcePoint" />
            <mxPoint x="947" y="586.79" as="targetPoint" />
          </mxGeometry>
        </mxCell>
        <mxCell id="tXqJvwdXQlFcjGPXLm3d-3" value="&lt;font style=&quot;font-size: 13px;&quot;&gt;get / save&lt;/font&gt;" style="edgeLabel;html=1;align=center;verticalAlign=middle;resizable=0;points=[];labelBackgroundColor=default;labelBorderColor=none;" parent="tXqJvwdXQlFcjGPXLm3d-1" vertex="1" connectable="0">
          <mxGeometry x="-0.1464" y="-6" relative="1" as="geometry">
            <mxPoint x="29" y="-19" as="offset" />
          </mxGeometry>
        </mxCell>
        <mxCell id="tXqJvwdXQlFcjGPXLm3d-2" value="" style="endArrow=classic;html=1;rounded=0;entryX=0.75;entryY=1;entryDx=0;entryDy=0;" parent="1" edge="1">
          <mxGeometry width="50" height="50" relative="1" as="geometry">
            <mxPoint x="946" y="612" as="sourcePoint" />
            <mxPoint x="887" y="544.9999999999998" as="targetPoint" />
          </mxGeometry>
        </mxCell>
        <mxCell id="tXqJvwdXQlFcjGPXLm3d-5" value="" style="endArrow=classic;html=1;rounded=0;" parent="1" edge="1">
          <mxGeometry width="50" height="50" relative="1" as="geometry">
            <mxPoint x="1110" y="260" as="sourcePoint" />
            <mxPoint x="950" y="380" as="targetPoint" />
          </mxGeometry>
        </mxCell>
        <mxCell id="tXqJvwdXQlFcjGPXLm3d-8" value="" style="endArrow=classic;html=1;rounded=0;" parent="1" edge="1">
          <mxGeometry width="50" height="50" relative="1" as="geometry">
            <mxPoint x="-125" y="529.17" as="sourcePoint" />
            <mxPoint x="-405" y="529.17" as="targetPoint" />
          </mxGeometry>
        </mxCell>
        <mxCell id="tXqJvwdXQlFcjGPXLm3d-9" value="" style="endArrow=classic;html=1;rounded=0;" parent="1" edge="1">
          <mxGeometry width="50" height="50" relative="1" as="geometry">
            <mxPoint x="580" y="520" as="sourcePoint" />
            <mxPoint x="390" y="520" as="targetPoint" />
          </mxGeometry>
        </mxCell>
        <mxCell id="VcgHcaniE1_zRYvjyjtv-1" value="&lt;font style=&quot;font-size: 22px;&quot;&gt;API&lt;br&gt;&lt;br&gt;&lt;/font&gt;&lt;div&gt;&lt;span style=&quot;font-size: 22px;&quot;&gt;- GET /api/v1/weather?location={abc}&amp;amp;date={dd-mm-yyyy}&lt;/span&gt;&lt;/div&gt;&lt;div&gt;&lt;span style=&quot;font-size: 22px;&quot;&gt;&lt;br&gt;&lt;/span&gt;&lt;/div&gt;&lt;div&gt;&lt;span style=&quot;font-size: 22px;&quot;&gt;&lt;br&gt;&lt;/span&gt;&lt;/div&gt;&lt;div&gt;&lt;span style=&quot;font-size: 22px;&quot;&gt;&lt;br&gt;&lt;/span&gt;&lt;/div&gt;&lt;div&gt;&lt;span style=&quot;font-size: 22px;&quot;&gt;---Authorized---&lt;/span&gt;&lt;/div&gt;&lt;div&gt;&lt;span style=&quot;font-size: 22px;&quot;&gt;&lt;br&gt;&lt;/span&gt;&lt;div&gt;&lt;div&gt;&lt;span style=&quot;font-size: 22px; background-color: transparent; color: light-dark(rgb(255, 255, 255), rgb(18, 18, 18));&quot;&gt;-&lt;/span&gt;&lt;span style=&quot;font-size: 22px; background-color: transparent; color: light-dark(rgb(255, 255, 255), rgb(18, 18, 18));&quot;&gt;&amp;nbsp;&lt;/span&gt;&lt;span style=&quot;font-size: 22px; background-color: transparent; color: light-dark(rgb(255, 255, 255), rgb(18, 18, 18));&quot;&gt;GET&amp;nbsp; &amp;nbsp;&lt;/span&gt;&lt;span style=&quot;font-size: 22px; background-color: transparent; color: light-dark(rgb(255, 255, 255), rgb(18, 18, 18));&quot;&gt;/api/v1/user/locations/weather&lt;/span&gt;&lt;/div&gt;&lt;div&gt;&lt;font style=&quot;font-size: 22px;&quot;&gt;- POST /api/v1/user/locations/weather&lt;/font&gt;&lt;/div&gt;&lt;div&gt;&lt;span style=&quot;font-size: 22px;&quot;&gt;{&lt;/span&gt;&lt;/div&gt;&lt;div&gt;&lt;span style=&quot;font-size: 22px;&quot;&gt;&lt;span style=&quot;white-space: pre;&quot;&gt;&#x9;&lt;/span&gt;&quot;location&quot;: &quot;abc&quot;,&lt;br&gt;&lt;/span&gt;&lt;/div&gt;&lt;div&gt;&lt;span style=&quot;font-size: 22px;&quot;&gt;&lt;span style=&quot;white-space: pre;&quot;&gt;&#x9;&lt;/span&gt;&quot;date&quot;: &quot;dd-mm-yyyy&quot;&lt;br&gt;&lt;/span&gt;&lt;/div&gt;&lt;div&gt;&lt;span style=&quot;font-size: 22px;&quot;&gt;}&lt;/span&gt;&lt;/div&gt;&lt;/div&gt;&lt;/div&gt;&lt;div&gt;&lt;span style=&quot;font-size: 22px;&quot;&gt;- DELETE /api/user/locations/{userLocationId}&lt;/span&gt;&lt;/div&gt;&lt;div&gt;&lt;span style=&quot;font-size: 22px;&quot;&gt;&lt;br&gt;&lt;/span&gt;&lt;/div&gt;&lt;div&gt;&lt;span style=&quot;font-size: 22px;&quot;&gt;&lt;br&gt;&lt;/span&gt;&lt;/div&gt;&lt;div&gt;&lt;span style=&quot;font-size: 22px;&quot;&gt;&lt;br&gt;&lt;/span&gt;&lt;/div&gt;&lt;div&gt;&lt;span style=&quot;font-size: 22px;&quot;&gt;&lt;br&gt;&lt;/span&gt;&lt;/div&gt;" style="text;html=1;align=left;verticalAlign=middle;resizable=0;points=[];autosize=1;strokeColor=#3A5431;fillColor=#6d8764;fontColor=#ffffff;" parent="1" vertex="1">
          <mxGeometry x="-850" y="580" width="590" height="510" as="geometry" />
        </mxCell>
      </root>
    </mxGraphModel>
  </diagram>
</mxfile>
